osimModel_states
nRows=13
nColumns=17

# SIMM Motion File Header:
name osimModel_states
datacolumns 17
datarows 13
otherdata 1
range 0.49539867 0.54249956
endheader
time	blockToGround_xTranslation	blockToGround_yTranslation	blockToGround_zTranslation	blockToGround_xRotation	blockToGround_yRotation	blockToGround_zRotation	blockToGround_xTranslation_u	blockToGround_yTranslation_u	blockToGround_zTranslation_u	blockToGround_xRotation_u	blockToGround_yRotation_u	blockToGround_zRotation_u	muscle1.activation	muscle1.fiber_length	muscle2.activation	muscle2.fiber_length
      0.49539867	     -0.00000473	     -0.00029577	      0.12232321	      0.16739040	      0.05719142	      0.03255475	     -0.00077730	     -0.03637387	      0.03249133	      4.51380001	     -0.12641045	     -1.45280623	      0.00000004	      0.22079321	      0.87979111	     -0.02439113
      0.50018195	     -0.00000589	     -0.00038659	      0.12245886	      0.19212893	      0.05631733	      0.02442869	      0.00028856	      0.00195483	      0.02429915	      5.68837047	     -0.21215774	     -1.91193924	      0.00000004	      0.22093323	      0.87231417	     -0.02452885
      0.50496523	     -0.00000264	     -0.00028046	      0.12256377	      0.21727583	      0.05522587	      0.01436973	      0.00099508	      0.03818358	      0.02046580	      4.32356859	     -0.22320980	     -2.28453572	      0.00000003	      0.22104182	      0.86512154	     -0.02463753
      0.50858571	      0.00000151	     -0.00013088	      0.12263757	      0.22828080	      0.05438323	      0.00570061	      0.00126356	      0.04008835	      0.02069902	      1.58244543	     -0.22239683	     -2.48082992	      0.00000003	      0.22111379	      0.85925338	     -0.02470732
      0.51220619	      0.00000632	     -0.00001638	      0.12271625	      0.22895963	      0.05355239	     -0.00339286	      0.00137801	      0.02083099	      0.02302025	     -1.02798964	     -0.21614191	     -2.52556324	      0.00000003	      0.22118835	      0.85262570	     -0.02477482
      0.51582668	      0.00001141	      0.00001081	      0.12280525	      0.22204805	      0.05275410	     -0.01245943	      0.00142892	     -0.00626180	      0.02615868	     -2.71781249	     -0.20316148	     -2.47011168	      0.00000003	      0.22127130	      0.84502254	     -0.02484681
      0.51988118	      0.00001731	     -0.00007405	      0.12291726	      0.20711505	      0.05195816	     -0.02215624	      0.00148119	     -0.03403480	      0.02869426	     -4.75886549	     -0.16316525	     -2.27546318	      0.00000002	      0.22137653	      0.83535024	     -0.02493681
      0.52333296	      0.00002251	     -0.00021321	      0.12301557	      0.18739361	      0.05150694	     -0.02934114	      0.00152557	     -0.04302070	      0.02749661	     -6.42657227	     -0.07707653	     -1.85092772	      0.00000002	      0.22147187	      0.82644509	     -0.02501935
      0.52678475	      0.00002773	     -0.00034249	      0.12310141	      0.16561043	      0.05140512	     -0.03478726	      0.00147016	     -0.02817710	      0.02165118	     -5.87251375	      0.02723156	     -1.29752306	      0.00000002	      0.22156009	      0.81752426	     -0.02509879
      0.53064611	      0.00003293	     -0.00038701	      0.12316984	      0.14604087	      0.05168980	     -0.03857042	      0.00119236	      0.00653641	      0.01422801	     -4.36853139	      0.11758972	     -0.65895450	      0.00000002	      0.22163493	      0.80801882	     -0.02517025
      0.53450747	      0.00003685	     -0.00029809	      0.12321757	      0.12975004	      0.05223150	     -0.03982747	      0.00084397	      0.03665772	      0.01120879	     -4.31214038	      0.15972067	      0.01666580	      0.00000002	      0.22168627	      0.79865592	     -0.02521925
      0.53836883	      0.00003953	     -0.00013797	      0.12326052	      0.11144134	      0.05291772	     -0.03839085	      0.00055733	      0.04114217	      0.01144863	     -5.28607771	      0.19684830	      0.73253817	      0.00000001	      0.22172890	      0.78878925	     -0.02525471
      0.54249956	      0.00004145	     -0.00001374	      0.12331275	      0.08651224	      0.05384708	     -0.03392415	      0.00040141	      0.01521836	      0.01418236	     -6.71846882	      0.24774568	      1.37470052	      0.00000001	      0.22177685	      0.77721521	     -0.02528922
